<?xml version="1.0" standalone="no"?>
<!DOCTYPE svg PUBLIC "-//W3C//DTD SVG 20010904//EN"
 "http://www.w3.org/TR/2001/REC-SVG-20010904/DTD/svg10.dtd">
<svg version="1.0" xmlns="http://www.w3.org/2000/svg"
 width="360.000000pt" height="289.000000pt" viewBox="0 0 360.000000 289.000000"
 preserveAspectRatio="xMidYMid meet">

<g transform="translate(0.000000,289.000000) scale(0.100000,-0.100000)"
fill="#000000" stroke="none">
<path d="M0 1445 l0 -1445 1800 0 1800 0 0 1445 0 1445 -1800 0 -1800 0 0
-1445z m2246 832 c19 -234 -113 -404 -426 -550 -112 -51 -267 -121 -335 -150
-66 -28 -186 -90 -225 -116 -14 -9 -37 -23 -52 -31 -16 -7 -28 -17 -28 -22 0
-5 -10 -6 -22 -3 -15 4 -18 3 -10 -3 10 -6 7 -13 -9 -28 -21 -17 -22 -18 -16
-1 4 11 3 16 -3 12 -6 -3 -10 -12 -10 -19 0 -18 -55 -68 -65 -59 -4 5 -6 1 -3
-7 3 -9 -5 -29 -18 -45 l-24 -30 6 35 c10 51 31 100 45 100 6 0 9 7 5 15 -12
33 70 156 147 219 58 47 218 138 340 193 147 66 283 139 352 188 145 104 260
264 306 425 l12 45 13 -43 c7 -24 16 -80 20 -125z m-548 -129 c-18 -27 -225
-141 -244 -134 -20 7 -18 39 4 52 9 6 49 28 87 49 39 21 83 47 99 56 22 13 34
15 48 8 17 -9 18 -13 6 -31z m216 -24 c19 -18 19 -20 6 -44 -19 -35 -337 -204
-365 -194 -10 4 -15 16 -13 33 2 21 20 35 98 80 52 29 129 73 170 97 41 24 78
44 81 44 4 0 15 -7 23 -16z m-549 -134 c12 -20 -6 -48 -44 -65 -68 -30 -88 14
-23 52 41 25 58 28 67 13z m866 -115 c-15 -99 -55 -177 -121 -238 -58 -54
-212 -137 -380 -204 -47 -19 -96 -41 -109 -50 -22 -14 -24 -14 -18 1 5 12 3
14 -11 7 -9 -5 -32 -15 -49 -21 -34 -13 -42 -25 -20 -33 6 -3 -1 -10 -17 -16
-19 -8 -32 -8 -35 -2 -4 5 -26 11 -49 12 -24 2 -46 7 -49 12 -3 5 -9 3 -14 -4
-5 -8 -9 -9 -9 -4 0 18 14 30 84 74 38 24 74 48 80 53 23 19 118 78 127 78 5
0 9 7 9 16 0 8 5 12 11 9 5 -4 18 0 27 8 9 8 76 44 149 80 196 97 301 174 364
266 39 57 45 49 30 -44z m-786 -16 c9 -27 -2 -37 -98 -88 -42 -23 -122 -69
-178 -102 -104 -62 -132 -69 -137 -33 -3 22 10 32 103 84 55 31 247 139 265
150 25 15 38 11 45 -11z m-581 -368 c-7 -8 -35 9 -29 19 4 6 11 5 20 -3 7 -6
11 -14 9 -16z m36 25 c0 -3 -4 -8 -10 -11 -5 -3 -10 -1 -10 4 0 6 5 11 10 11
6 0 10 -2 10 -4z m555 -206 c3 -5 1 -10 -4 -10 -6 0 -11 5 -11 10 0 6 2 10 4
10 3 0 8 -4 11 -10z m1023 -242 c-2 -123 -7 -229 -11 -236 -7 -11 -13 -10 -33
3 -13 8 -24 12 -24 8 0 -5 -4 -3 -8 2 -4 6 -25 19 -47 30 -22 11 -43 24 -47
29 -4 6 -13 4 -22 -4 -30 -24 -29 -1 4 62 18 35 36 65 40 68 12 8 70 128 70
145 0 16 -10 9 -152 -102 l-53 -42 -237 -3 -238 -3 132 133 133 132 248 0 248
0 -3 -222z"/>
<path d="M1081 1364 c0 -11 3 -14 6 -6 3 7 2 16 -1 19 -3 4 -6 -2 -5 -13z"/>
</g>
</svg>
